<?xml version="1.0" standalone="no"?>
<!DOCTYPE svg PUBLIC "-//W3C//DTD SVG 20010904//EN"
 "http://www.w3.org/TR/2001/REC-SVG-20010904/DTD/svg10.dtd">
<svg version="1.0" xmlns="http://www.w3.org/2000/svg"
 width="83.000000pt" height="83.000000pt" viewBox="0 0 83.000000 83.000000"
 preserveAspectRatio="xMidYMid meet">
<metadata>
Created by potrace 1.11, written by Peter Selinger 2001-2013
</metadata>
<g transform="translate(0.000000,83.000000) scale(0.100000,-0.100000)"
fill="#000000" stroke="none">
<path d="M358 742 c-3 -23 -8 -26 -48 -28 -59 -2 -57 -1 -56 -26 1 -13 -5 -23
-11 -24 -7 -1 -19 -2 -26 -3 -9 -1 -13 -18 -12 -58 0 -57 0 -58 -35 -69 -58
-19 -59 -34 -10 -110 39 -59 45 -74 45 -126 2 -68 -14 -91 -43 -64 -23 20 -46
21 -62 1 -14 -17 -40 -20 -40 -5 0 14 -13 12 -35 -4 -19 -14 -19 -14 0 -36 35
-39 54 -44 79 -21 l23 21 23 -20 c29 -25 31 -25 60 0 l23 20 24 -22 23 -22 29
21 28 21 21 -21 22 -21 29 21 c29 22 29 22 46 2 23 -24 31 -24 62 1 25 19 25
19 46 0 26 -25 28 -25 59 0 25 19 26 19 43 0 23 -25 33 -25 60 0 20 18 23 19
35 5 17 -20 27 -19 40 4 8 16 5 25 -15 45 -30 30 -47 32 -65 11 -16 -19 -34
-19 -51 1 -7 8 -21 13 -31 11 -14 -4 -18 1 -19 26 -2 70 5 93 46 155 24 35 41
70 39 77 -3 7 -23 18 -45 25 -37 12 -39 16 -40 54 -1 23 -1 49 0 59 2 16 -9
21 -36 18 -7 -1 -14 5 -14 14 -1 8 -2 21 -3 28 -1 7 -18 12 -43 13 -64 2 -64
2 -61 27 3 20 -1 22 -49 23 -49 1 -52 0 -55 -24z m153 -89 c1 -7 2 -19 3 -25
0 -7 13 -14 28 -16 22 -3 27 -8 24 -25 -1 -12 -7 -21 -12 -19 -5 1 -39 12 -75
24 l-66 21 -77 -26 -77 -25 3 26 c2 21 8 26 26 25 18 -2 22 2 22 25 l0 28 100
0 c72 -1 100 -4 101 -13z"/>
<path d="M99 131 c-22 -18 -25 -18 -42 -4 -16 15 -18 15 -32 -3 -13 -17 -11
-22 16 -49 l29 -30 32 18 c28 16 32 16 48 2 22 -20 43 -19 64 4 17 19 18 19
37 0 23 -23 42 -24 59 -4 16 19 29 19 51 -1 18 -16 59 -12 59 7 0 14 26 11 40
-6 17 -21 43 -19 59 4 14 19 15 19 42 -1 27 -20 38 -20 70 4 14 9 20 8 34 -5
21 -22 37 -21 62 2 19 18 22 18 37 3 15 -15 17 -15 34 1 16 17 15 20 -16 48
-38 34 -43 35 -67 10 -17 -20 -17 -20 -46 2 l-29 21 -22 -21 -21 -22 -29 20
c-28 20 -28 20 -55 1 -27 -20 -27 -20 -55 1 l-28 21 -22 -21 -21 -21 -28 21
-29 21 -22 -21 c-23 -21 -23 -21 -47 -2 -29 24 -32 24 -59 -1 l-22 -21 -22 21
c-27 25 -30 25 -59 1z"/>
</g>
</svg>
